<?xml version="1.0" encoding="UTF-8"?><svg xmlns="http://www.w3.org/2000/svg" xmlns:xlink="http://www.w3.org/1999/xlink" width="750pt" zoomAndPan="magnify" viewBox="0 0 750 225" height="225pt" preserveAspectRatio="xMidYMid meet" version="1.2"><defs><g/></defs><g xml:id="surface1" id="surface1"><g style="fill:rgb(0%,0%,0%);fill-opacity:1;"><g transform="translate(211.738263, 57.150008)"><path style="stroke:none;" d="M 20.953125 -3.238281 C 21.058594 -3.347656 21.097656 -3.492188 21.097656 -3.707031 L 21.097656 -13.644531 C 21.097656 -13.894531 20.953125 -14.039062 20.699219 -14.039062 L 12.167969 -14.039062 C 11.914062 -14.039062 11.773438 -13.894531 11.773438 -13.644531 L 11.773438 -11.628906 C 11.773438 -11.375 11.914062 -11.230469 12.167969 -11.230469 L 18.070312 -11.230469 L 18.070312 -4.535156 C 16.632812 -3.3125 14.472656 -2.519531 11.988281 -2.519531 C 8.136719 -2.519531 5.398438 -4.609375 5.398438 -8.53125 L 5.398438 -17.171875 C 5.398438 -21.097656 7.921875 -23.257812 11.734375 -23.257812 C 14.21875 -23.257812 16.597656 -22.535156 18.613281 -21.203125 C 18.828125 -21.097656 19.007812 -21.097656 19.152344 -21.3125 L 20.375 -23.003906 C 20.519531 -23.183594 20.519531 -23.4375 20.269531 -23.578125 C 17.855469 -25.234375 14.761719 -26.136719 11.734375 -26.136719 C 6.550781 -26.136719 2.339844 -23.148438 2.339844 -17.242188 L 2.339844 -8.53125 C 2.339844 -2.628906 6.695312 0.394531 11.988281 0.394531 C 15.730469 0.394531 18.828125 -1.042969 20.953125 -3.238281 Z M 20.953125 -3.238281 "/></g></g><g style="fill:rgb(0%,0%,0%);fill-opacity:1;"><g transform="translate(234.994305, 57.150008)"><path style="stroke:none;" d="M 21.886719 -8.785156 L 21.886719 -25.34375 C 21.886719 -25.597656 21.707031 -25.738281 21.457031 -25.738281 L 19.152344 -25.738281 C 18.898438 -25.738281 18.757812 -25.597656 18.757812 -25.34375 L 18.757812 -9 C 18.757812 -4.933594 16.453125 -2.449219 12.421875 -2.449219 C 8.386719 -2.449219 6.121094 -4.933594 6.121094 -9 L 6.121094 -25.34375 C 6.121094 -25.597656 5.976562 -25.738281 5.722656 -25.738281 L 3.421875 -25.738281 C 3.167969 -25.738281 2.988281 -25.597656 2.988281 -25.34375 L 2.988281 -8.785156 C 2.988281 -3.3125 6.660156 0.394531 12.421875 0.394531 C 18.214844 0.394531 21.886719 -3.3125 21.886719 -8.785156 Z M 21.886719 -8.785156 "/></g></g><g style="fill:rgb(0%,0%,0%);fill-opacity:1;"><g transform="translate(259.870349, 57.150008)"><path style="stroke:none;" d="M 20.304688 -6.984375 C 20.304688 -12.097656 16.054688 -13.609375 11.269531 -14.6875 C 7.488281 -15.550781 4.96875 -16.523438 4.96875 -19.261719 C 4.96875 -21.886719 7.378906 -23.292969 10.800781 -23.292969 C 13.285156 -23.21875 15.589844 -22.464844 17.785156 -20.953125 C 18 -20.808594 18.214844 -20.808594 18.359375 -21.023438 L 19.546875 -22.714844 C 19.691406 -22.894531 19.691406 -23.113281 19.441406 -23.257812 C 16.703125 -25.234375 14.257812 -26.136719 11.050781 -26.136719 C 6.121094 -26.136719 1.871094 -24.085938 1.871094 -19.332031 C 1.871094 -14.542969 6.121094 -12.707031 10.476562 -11.734375 C 14.578125 -10.835938 17.207031 -9.898438 17.207031 -6.910156 C 17.207031 -3.886719 14.257812 -2.519531 10.980469 -2.519531 C 8.28125 -2.554688 6.046875 -3.527344 3.5625 -5.398438 C 3.382812 -5.542969 3.167969 -5.507812 3.023438 -5.292969 L 1.800781 -3.601562 C 1.65625 -3.382812 1.65625 -3.203125 1.871094 -3.023438 C 4.714844 -0.71875 7.308594 0.394531 10.871094 0.394531 C 15.949219 0.394531 20.304688 -1.835938 20.304688 -6.984375 Z M 20.304688 -6.984375 "/></g></g><g style="fill:rgb(0%,0%,0%);fill-opacity:1;"><g transform="translate(281.686392, 57.150008)"><path style="stroke:none;" d="M 19.332031 -25.738281 L 0.828125 -25.738281 C 0.574219 -25.738281 0.433594 -25.597656 0.433594 -25.34375 L 0.433594 -23.328125 C 0.433594 -23.074219 0.574219 -22.933594 0.828125 -22.933594 L 8.53125 -22.933594 L 8.53125 -0.394531 C 8.53125 -0.144531 8.710938 0 8.964844 0 L 11.195312 0 C 11.449219 0 11.628906 -0.144531 11.628906 -0.394531 L 11.628906 -22.933594 L 19.332031 -22.933594 C 19.585938 -22.933594 19.765625 -23.074219 19.765625 -23.328125 L 19.765625 -25.34375 C 19.765625 -25.597656 19.585938 -25.738281 19.332031 -25.738281 Z M 19.332031 -25.738281 "/></g></g><g style="fill:rgb(0%,0%,0%);fill-opacity:1;"><g transform="translate(301.882432, 57.150008)"><path style="stroke:none;" d="M 0.648438 0 L 3.058594 0 C 3.3125 0 3.457031 -0.109375 3.527344 -0.324219 L 5.761719 -6.730469 L 16.558594 -6.730469 L 18.757812 -0.324219 C 18.828125 -0.109375 19.007812 0 19.222656 0 L 21.636719 0 C 21.925781 0 22.066406 -0.179688 21.960938 -0.46875 L 13.03125 -25.414062 C 12.960938 -25.632812 12.78125 -25.738281 12.5625 -25.738281 L 9.71875 -25.738281 C 9.503906 -25.738281 9.359375 -25.632812 9.289062 -25.414062 L 0.324219 -0.46875 C 0.253906 -0.179688 0.359375 0 0.648438 0 Z M 6.695312 -9.574219 L 11.089844 -22.320312 L 11.230469 -22.320312 L 15.625 -9.574219 Z M 6.695312 -9.574219 "/></g></g><g style="fill:rgb(0%,0%,0%);fill-opacity:1;"><g transform="translate(324.166481, 57.150008)"><path style="stroke:none;" d="M 9.792969 0 L 12.851562 0 C 13.066406 0 13.246094 -0.109375 13.320312 -0.324219 L 22.390625 -25.273438 C 22.464844 -25.558594 22.355469 -25.738281 22.066406 -25.738281 L 19.621094 -25.738281 C 19.402344 -25.738281 19.222656 -25.632812 19.152344 -25.414062 L 13.894531 -10.621094 C 13.066406 -8.207031 12.238281 -5.796875 11.375 -3.382812 L 11.269531 -3.382812 C 10.441406 -5.796875 9.574219 -8.28125 8.710938 -10.691406 L 3.492188 -25.414062 C 3.421875 -25.632812 3.238281 -25.738281 3.023438 -25.738281 L 0.574219 -25.738281 C 0.289062 -25.738281 0.144531 -25.558594 0.253906 -25.273438 L 9.324219 -0.324219 C 9.394531 -0.109375 9.574219 0 9.792969 0 Z M 9.792969 0 "/></g></g><g style="fill:rgb(0%,0%,0%);fill-opacity:1;"><g transform="translate(346.882522, 57.150008)"><path style="stroke:none;" d="M 21.960938 -9.035156 L 21.960938 -16.632812 C 21.960938 -22.535156 18.214844 -26.136719 12.132812 -26.136719 C 6.046875 -26.136719 2.304688 -22.535156 2.304688 -16.632812 L 2.304688 -9.035156 C 2.304688 -3.238281 6.046875 0.394531 12.132812 0.394531 C 18.214844 0.394531 21.960938 -3.238281 21.960938 -9.035156 Z M 5.398438 -9.035156 L 5.398438 -16.632812 C 5.398438 -20.84375 7.847656 -23.292969 12.132812 -23.292969 C 16.414062 -23.292969 18.828125 -20.84375 18.828125 -16.632812 L 18.828125 -9.035156 C 18.828125 -4.96875 16.414062 -2.519531 12.132812 -2.519531 C 7.847656 -2.519531 5.398438 -4.96875 5.398438 -9.035156 Z M 5.398438 -9.035156 "/></g></g><g style="fill:rgb(0%,0%,0%);fill-opacity:1;"><g transform="translate(371.136694, 57.150008)"><path style="stroke:none;" d=""/></g></g><g style="fill:rgb(0%,0%,0%);fill-opacity:1;"><g transform="translate(379.236707, 57.150008)"><path style="stroke:none;" d=""/></g></g><g style="fill:rgb(0%,0%,0%);fill-opacity:1;"><g transform="translate(387.332006, 57.150008)"><path style="stroke:none;" d="M 20.304688 -6.984375 C 20.304688 -12.097656 16.054688 -13.609375 11.269531 -14.6875 C 7.488281 -15.550781 4.96875 -16.523438 4.96875 -19.261719 C 4.96875 -21.886719 7.378906 -23.292969 10.800781 -23.292969 C 13.285156 -23.21875 15.589844 -22.464844 17.785156 -20.953125 C 18 -20.808594 18.214844 -20.808594 18.359375 -21.023438 L 19.546875 -22.714844 C 19.691406 -22.894531 19.691406 -23.113281 19.441406 -23.257812 C 16.703125 -25.234375 14.257812 -26.136719 11.050781 -26.136719 C 6.121094 -26.136719 1.871094 -24.085938 1.871094 -19.332031 C 1.871094 -14.542969 6.121094 -12.707031 10.476562 -11.734375 C 14.578125 -10.835938 17.207031 -9.898438 17.207031 -6.910156 C 17.207031 -3.886719 14.257812 -2.519531 10.980469 -2.519531 C 8.28125 -2.554688 6.046875 -3.527344 3.5625 -5.398438 C 3.382812 -5.542969 3.167969 -5.507812 3.023438 -5.292969 L 1.800781 -3.601562 C 1.65625 -3.382812 1.65625 -3.203125 1.871094 -3.023438 C 4.714844 -0.71875 7.308594 0.394531 10.871094 0.394531 C 15.949219 0.394531 20.304688 -1.835938 20.304688 -6.984375 Z M 20.304688 -6.984375 "/></g></g><g style="fill:rgb(0%,0%,0%);fill-opacity:1;"><g transform="translate(409.148048, 57.150008)"><path style="stroke:none;" d="M 0.648438 0 L 3.058594 0 C 3.3125 0 3.457031 -0.109375 3.527344 -0.324219 L 5.761719 -6.730469 L 16.558594 -6.730469 L 18.757812 -0.324219 C 18.828125 -0.109375 19.007812 0 19.222656 0 L 21.636719 0 C 21.925781 0 22.066406 -0.179688 21.960938 -0.46875 L 13.03125 -25.414062 C 12.960938 -25.632812 12.78125 -25.738281 12.5625 -25.738281 L 9.71875 -25.738281 C 9.503906 -25.738281 9.359375 -25.632812 9.289062 -25.414062 L 0.324219 -0.46875 C 0.253906 -0.179688 0.359375 0 0.648438 0 Z M 6.695312 -9.574219 L 11.089844 -22.320312 L 11.230469 -22.320312 L 15.625 -9.574219 Z M 6.695312 -9.574219 "/></g></g><g style="fill:rgb(0%,0%,0%);fill-opacity:1;"><g transform="translate(431.432098, 57.150008)"><path style="stroke:none;" d="M 3.636719 0 L 17.605469 0 C 17.855469 0 18 -0.144531 18 -0.394531 L 18 -2.410156 C 18 -2.664062 17.855469 -2.808594 17.605469 -2.808594 L 6.300781 -2.808594 L 6.300781 -25.34375 C 6.300781 -25.597656 6.15625 -25.738281 5.902344 -25.738281 L 3.636719 -25.738281 C 3.347656 -25.738281 3.203125 -25.597656 3.203125 -25.34375 L 3.203125 -0.394531 C 3.203125 -0.144531 3.347656 0 3.636719 0 Z M 3.636719 0 "/></g></g><g style="fill:rgb(0%,0%,0%);fill-opacity:1;"><g transform="translate(449.864135, 57.150008)"><path style="stroke:none;" d="M 0.648438 0 L 3.058594 0 C 3.3125 0 3.457031 -0.109375 3.527344 -0.324219 L 5.761719 -6.730469 L 16.558594 -6.730469 L 18.757812 -0.324219 C 18.828125 -0.109375 19.007812 0 19.222656 0 L 21.636719 0 C 21.925781 0 22.066406 -0.179688 21.960938 -0.46875 L 13.03125 -25.414062 C 12.960938 -25.632812 12.78125 -25.738281 12.5625 -25.738281 L 9.71875 -25.738281 C 9.503906 -25.738281 9.359375 -25.632812 9.289062 -25.414062 L 0.324219 -0.46875 C 0.253906 -0.179688 0.359375 0 0.648438 0 Z M 6.695312 -9.574219 L 11.089844 -22.320312 L 11.230469 -22.320312 L 15.625 -9.574219 Z M 6.695312 -9.574219 "/></g></g><g style="fill:rgb(0%,0%,0%);fill-opacity:1;"><g transform="translate(472.148184, 57.150008)"><path style="stroke:none;" d="M 1.691406 0 L 19.441406 0 C 19.691406 0 19.835938 -0.144531 19.835938 -0.394531 L 19.835938 -2.410156 C 19.835938 -2.664062 19.691406 -2.808594 19.441406 -2.808594 L 5.4375 -2.808594 L 19.367188 -23.4375 C 19.476562 -23.617188 19.511719 -23.796875 19.511719 -23.976562 L 19.511719 -25.34375 C 19.511719 -25.597656 19.367188 -25.738281 19.117188 -25.738281 L 2.304688 -25.738281 C 2.015625 -25.738281 1.871094 -25.597656 1.871094 -25.34375 L 1.871094 -23.328125 C 1.871094 -23.074219 2.015625 -22.933594 2.304688 -22.933594 L 15.40625 -22.933594 L 1.441406 -2.304688 C 1.332031 -2.160156 1.296875 -1.980469 1.296875 -1.800781 L 1.296875 -0.394531 C 1.296875 -0.144531 1.441406 0 1.691406 0 Z M 1.691406 0 "/></g></g><g style="fill:rgb(0%,0%,0%);fill-opacity:1;"><g transform="translate(493.316228, 57.150008)"><path style="stroke:none;" d="M 0.648438 0 L 3.058594 0 C 3.3125 0 3.457031 -0.109375 3.527344 -0.324219 L 5.761719 -6.730469 L 16.558594 -6.730469 L 18.757812 -0.324219 C 18.828125 -0.109375 19.007812 0 19.222656 0 L 21.636719 0 C 21.925781 0 22.066406 -0.179688 21.960938 -0.46875 L 13.03125 -25.414062 C 12.960938 -25.632812 12.78125 -25.738281 12.5625 -25.738281 L 9.71875 -25.738281 C 9.503906 -25.738281 9.359375 -25.632812 9.289062 -25.414062 L 0.324219 -0.46875 C 0.253906 -0.179688 0.359375 0 0.648438 0 Z M 6.695312 -9.574219 L 11.089844 -22.320312 L 11.230469 -22.320312 L 15.625 -9.574219 Z M 6.695312 -9.574219 "/></g></g><g style="fill:rgb(0%,0%,0%);fill-opacity:1;"><g transform="translate(515.600277, 57.150008)"><path style="stroke:none;" d="M 18.289062 0 L 21.097656 0 C 21.421875 0 21.5625 -0.214844 21.347656 -0.503906 L 14.039062 -10.296875 C 18.289062 -11.015625 20.808594 -13.753906 20.808594 -17.855469 C 20.808594 -22.824219 17.386719 -25.738281 11.734375 -25.738281 L 3.636719 -25.738281 C 3.347656 -25.738281 3.203125 -25.597656 3.203125 -25.34375 L 3.203125 -0.394531 C 3.203125 -0.144531 3.347656 0 3.636719 0 L 5.867188 0 C 6.121094 0 6.265625 -0.144531 6.265625 -0.394531 L 6.265625 -10.042969 L 10.621094 -10.042969 L 17.785156 -0.253906 C 17.890625 -0.0703125 18.070312 0 18.289062 0 Z M 6.265625 -22.933594 L 11.773438 -22.933594 C 15.660156 -22.933594 17.675781 -21.238281 17.675781 -17.855469 C 17.675781 -14.472656 15.660156 -12.816406 11.773438 -12.816406 L 6.265625 -12.816406 Z M 6.265625 -22.933594 "/></g></g><g style="fill:rgb(0%,0%,0%);fill-opacity:1;"><g transform="translate(268.598955, 95.571474)"><path style="stroke:none;" d="M 2.019531 0 L 6.898438 0 C 10.136719 0 12.097656 -1.820312 12.097656 -5.058594 L 12.097656 -9.15625 C 12.097656 -12.4375 10.136719 -14.296875 6.898438 -14.296875 L 2.019531 -14.296875 C 1.859375 -14.296875 1.78125 -14.214844 1.78125 -14.078125 L 1.78125 -0.21875 C 1.78125 -0.078125 1.859375 0 2.019531 0 Z M 3.5 -1.597656 L 3.5 -12.738281 L 6.878906 -12.738281 C 9.097656 -12.738281 10.335938 -11.515625 10.335938 -9.15625 L 10.335938 -5.058594 C 10.335938 -2.757812 9.097656 -1.597656 6.878906 -1.597656 Z M 3.5 -1.597656 "/></g></g><g style="fill:rgb(0%,0%,0%);fill-opacity:1;"><g transform="translate(281.993668, 95.571474)"><path style="stroke:none;" d="M 3.5 -1.558594 L 3.5 -6.476562 L 9.636719 -6.476562 C 9.777344 -6.476562 9.859375 -6.558594 9.859375 -6.71875 L 9.859375 -7.816406 C 9.859375 -7.976562 9.777344 -8.058594 9.636719 -8.058594 L 3.5 -8.058594 L 3.5 -12.738281 L 10.097656 -12.738281 C 10.238281 -12.738281 10.316406 -12.816406 10.316406 -12.957031 L 10.316406 -14.078125 C 10.316406 -14.214844 10.238281 -14.296875 10.097656 -14.296875 L 2.019531 -14.296875 C 1.859375 -14.296875 1.78125 -14.214844 1.78125 -14.078125 L 1.78125 -0.21875 C 1.78125 -0.078125 1.859375 0 2.019531 0 L 10.378906 0 C 10.515625 0 10.597656 -0.078125 10.597656 -0.21875 L 10.597656 -1.339844 C 10.597656 -1.480469 10.515625 -1.558594 10.378906 -1.558594 Z M 3.5 -1.558594 "/></g></g><g style="fill:rgb(0%,0%,0%);fill-opacity:1;"><g transform="translate(293.569104, 95.571474)"><path style="stroke:none;" d="M 11.277344 -3.878906 C 11.277344 -6.71875 8.917969 -7.558594 6.257812 -8.15625 C 4.160156 -8.636719 2.757812 -9.175781 2.757812 -10.699219 C 2.757812 -12.15625 4.097656 -12.9375 6 -12.9375 C 7.378906 -12.898438 8.65625 -12.476562 9.878906 -11.636719 C 9.996094 -11.558594 10.117188 -11.558594 10.199219 -11.675781 L 10.855469 -12.617188 C 10.9375 -12.71875 10.9375 -12.835938 10.796875 -12.917969 C 9.277344 -14.015625 7.917969 -14.515625 6.136719 -14.515625 C 3.398438 -14.515625 1.039062 -13.375 1.039062 -10.738281 C 1.039062 -8.078125 3.398438 -7.058594 5.820312 -6.519531 C 8.097656 -6.019531 9.558594 -5.5 9.558594 -3.839844 C 9.558594 -2.160156 7.917969 -1.398438 6.097656 -1.398438 C 4.597656 -1.417969 3.359375 -1.960938 1.980469 -3 C 1.878906 -3.078125 1.757812 -3.058594 1.679688 -2.9375 L 1 -2 C 0.917969 -1.878906 0.917969 -1.78125 1.039062 -1.679688 C 2.621094 -0.398438 4.058594 0.21875 6.039062 0.21875 C 8.859375 0.21875 11.277344 -1.019531 11.277344 -3.878906 Z M 11.277344 -3.878906 "/></g></g><g style="fill:rgb(0%,0%,0%);fill-opacity:1;"><g transform="translate(305.684322, 95.571474)"><path style="stroke:none;" d="M 0.359375 0 L 1.699219 0 C 1.839844 0 1.917969 -0.0585938 1.960938 -0.179688 L 3.199219 -3.738281 L 9.199219 -3.738281 L 10.417969 -0.179688 C 10.457031 -0.0585938 10.558594 0 10.675781 0 L 12.015625 0 C 12.175781 0 12.257812 -0.101562 12.195312 -0.261719 L 7.238281 -14.117188 C 7.199219 -14.238281 7.097656 -14.296875 6.976562 -14.296875 L 5.398438 -14.296875 C 5.277344 -14.296875 5.199219 -14.238281 5.160156 -14.117188 L 0.179688 -0.261719 C 0.140625 -0.101562 0.199219 0 0.359375 0 Z M 3.71875 -5.320312 L 6.160156 -12.398438 L 6.238281 -12.398438 L 8.679688 -5.320312 Z M 3.71875 -5.320312 "/></g></g><g style="fill:rgb(0%,0%,0%);fill-opacity:1;"><g transform="translate(318.059436, 95.571474)"><path style="stroke:none;" d="M 10.15625 0 L 11.71875 0 C 11.898438 0 11.976562 -0.121094 11.855469 -0.28125 L 7.796875 -5.71875 C 10.15625 -6.117188 11.558594 -7.636719 11.558594 -9.917969 C 11.558594 -12.675781 9.65625 -14.296875 6.519531 -14.296875 L 2.019531 -14.296875 C 1.859375 -14.296875 1.78125 -14.214844 1.78125 -14.078125 L 1.78125 -0.21875 C 1.78125 -0.078125 1.859375 0 2.019531 0 L 3.257812 0 C 3.398438 0 3.480469 -0.078125 3.480469 -0.21875 L 3.480469 -5.578125 L 5.898438 -5.578125 L 9.878906 -0.140625 C 9.9375 -0.0390625 10.039062 0 10.15625 0 Z M 3.480469 -12.738281 L 6.539062 -12.738281 C 8.699219 -12.738281 9.816406 -11.796875 9.816406 -9.917969 C 9.816406 -8.039062 8.699219 -7.117188 6.539062 -7.117188 L 3.480469 -7.117188 Z M 3.480469 -12.738281 "/></g></g><g style="fill:rgb(0%,0%,0%);fill-opacity:1;"><g transform="translate(330.674464, 95.571474)"><path style="stroke:none;" d="M 10.15625 0 L 11.71875 0 C 11.898438 0 11.976562 -0.121094 11.855469 -0.28125 L 7.796875 -5.71875 C 10.15625 -6.117188 11.558594 -7.636719 11.558594 -9.917969 C 11.558594 -12.675781 9.65625 -14.296875 6.519531 -14.296875 L 2.019531 -14.296875 C 1.859375 -14.296875 1.78125 -14.214844 1.78125 -14.078125 L 1.78125 -0.21875 C 1.78125 -0.078125 1.859375 0 2.019531 0 L 3.257812 0 C 3.398438 0 3.480469 -0.078125 3.480469 -0.21875 L 3.480469 -5.578125 L 5.898438 -5.578125 L 9.878906 -0.140625 C 9.9375 -0.0390625 10.039062 0 10.15625 0 Z M 3.480469 -12.738281 L 6.539062 -12.738281 C 8.699219 -12.738281 9.816406 -11.796875 9.816406 -9.917969 C 9.816406 -8.039062 8.699219 -7.117188 6.539062 -7.117188 L 3.480469 -7.117188 Z M 3.480469 -12.738281 "/></g></g><g style="fill:rgb(0%,0%,0%);fill-opacity:1;"><g transform="translate(343.289492, 95.571474)"><path style="stroke:none;" d="M 12.195312 -5.019531 L 12.195312 -9.238281 C 12.195312 -12.515625 10.117188 -14.515625 6.738281 -14.515625 C 3.359375 -14.515625 1.28125 -12.515625 1.28125 -9.238281 L 1.28125 -5.019531 C 1.28125 -1.800781 3.359375 0.21875 6.738281 0.21875 C 10.117188 0.21875 12.195312 -1.800781 12.195312 -5.019531 Z M 3 -5.019531 L 3 -9.238281 C 3 -11.578125 4.359375 -12.9375 6.738281 -12.9375 C 9.117188 -12.9375 10.457031 -11.578125 10.457031 -9.238281 L 10.457031 -5.019531 C 10.457031 -2.757812 9.117188 -1.398438 6.738281 -1.398438 C 4.359375 -1.398438 3 -2.757812 3 -5.019531 Z M 3 -5.019531 "/></g></g><g style="fill:rgb(0%,0%,0%);fill-opacity:1;"><g transform="translate(356.764178, 95.571474)"><path style="stroke:none;" d="M 2.019531 0 L 9.777344 0 C 9.917969 0 9.996094 -0.078125 9.996094 -0.21875 L 9.996094 -1.339844 C 9.996094 -1.480469 9.917969 -1.558594 9.777344 -1.558594 L 3.5 -1.558594 L 3.5 -14.078125 C 3.5 -14.214844 3.417969 -14.296875 3.277344 -14.296875 L 2.019531 -14.296875 C 1.859375 -14.296875 1.78125 -14.214844 1.78125 -14.078125 L 1.78125 -0.21875 C 1.78125 -0.078125 1.859375 0 2.019531 0 Z M 2.019531 0 "/></g></g><g style="fill:rgb(0%,0%,0%);fill-opacity:1;"><g transform="translate(367.000139, 95.571474)"><path style="stroke:none;" d="M 2.019531 0 L 9.777344 0 C 9.917969 0 9.996094 -0.078125 9.996094 -0.21875 L 9.996094 -1.339844 C 9.996094 -1.480469 9.917969 -1.558594 9.777344 -1.558594 L 3.5 -1.558594 L 3.5 -14.078125 C 3.5 -14.214844 3.417969 -14.296875 3.277344 -14.296875 L 2.019531 -14.296875 C 1.859375 -14.296875 1.78125 -14.214844 1.78125 -14.078125 L 1.78125 -0.21875 C 1.78125 -0.078125 1.859375 0 2.019531 0 Z M 2.019531 0 "/></g></g><g style="fill:rgb(0%,0%,0%);fill-opacity:1;"><g transform="translate(377.236101, 95.571474)"><path style="stroke:none;" d="M 0.359375 0 L 1.699219 0 C 1.839844 0 1.917969 -0.0585938 1.960938 -0.179688 L 3.199219 -3.738281 L 9.199219 -3.738281 L 10.417969 -0.179688 C 10.457031 -0.0585938 10.558594 0 10.675781 0 L 12.015625 0 C 12.175781 0 12.257812 -0.101562 12.195312 -0.261719 L 7.238281 -14.117188 C 7.199219 -14.238281 7.097656 -14.296875 6.976562 -14.296875 L 5.398438 -14.296875 C 5.277344 -14.296875 5.199219 -14.238281 5.160156 -14.117188 L 0.179688 -0.261719 C 0.140625 -0.101562 0.199219 0 0.359375 0 Z M 3.71875 -5.320312 L 6.160156 -12.398438 L 6.238281 -12.398438 L 8.679688 -5.320312 Z M 3.71875 -5.320312 "/></g></g><g style="fill:rgb(0%,0%,0%);fill-opacity:1;"><g transform="translate(389.611214, 95.571474)"><path style="stroke:none;" d="M 2.019531 0 L 6.898438 0 C 10.136719 0 12.097656 -1.820312 12.097656 -5.058594 L 12.097656 -9.15625 C 12.097656 -12.4375 10.136719 -14.296875 6.898438 -14.296875 L 2.019531 -14.296875 C 1.859375 -14.296875 1.78125 -14.214844 1.78125 -14.078125 L 1.78125 -0.21875 C 1.78125 -0.078125 1.859375 0 2.019531 0 Z M 3.5 -1.597656 L 3.5 -12.738281 L 6.878906 -12.738281 C 9.097656 -12.738281 10.335938 -11.515625 10.335938 -9.15625 L 10.335938 -5.058594 C 10.335938 -2.757812 9.097656 -1.597656 6.878906 -1.597656 Z M 3.5 -1.597656 "/></g></g><g style="fill:rgb(0%,0%,0%);fill-opacity:1;"><g transform="translate(403.005928, 95.571474)"><path style="stroke:none;" d="M 12.195312 -5.019531 L 12.195312 -9.238281 C 12.195312 -12.515625 10.117188 -14.515625 6.738281 -14.515625 C 3.359375 -14.515625 1.28125 -12.515625 1.28125 -9.238281 L 1.28125 -5.019531 C 1.28125 -1.800781 3.359375 0.21875 6.738281 0.21875 C 10.117188 0.21875 12.195312 -1.800781 12.195312 -5.019531 Z M 3 -5.019531 L 3 -9.238281 C 3 -11.578125 4.359375 -12.9375 6.738281 -12.9375 C 9.117188 -12.9375 10.457031 -11.578125 10.457031 -9.238281 L 10.457031 -5.019531 C 10.457031 -2.757812 9.117188 -1.398438 6.738281 -1.398438 C 4.359375 -1.398438 3 -2.757812 3 -5.019531 Z M 3 -5.019531 "/></g></g><g style="fill:rgb(0%,0%,0%);fill-opacity:1;"><g transform="translate(416.480614, 95.571474)"><path style="stroke:none;" d="M 10.15625 0 L 11.71875 0 C 11.898438 0 11.976562 -0.121094 11.855469 -0.28125 L 7.796875 -5.71875 C 10.15625 -6.117188 11.558594 -7.636719 11.558594 -9.917969 C 11.558594 -12.675781 9.65625 -14.296875 6.519531 -14.296875 L 2.019531 -14.296875 C 1.859375 -14.296875 1.78125 -14.214844 1.78125 -14.078125 L 1.78125 -0.21875 C 1.78125 -0.078125 1.859375 0 2.019531 0 L 3.257812 0 C 3.398438 0 3.480469 -0.078125 3.480469 -0.21875 L 3.480469 -5.578125 L 5.898438 -5.578125 L 9.878906 -0.140625 C 9.9375 -0.0390625 10.039062 0 10.15625 0 Z M 3.480469 -12.738281 L 6.539062 -12.738281 C 8.699219 -12.738281 9.816406 -11.796875 9.816406 -9.917969 C 9.816406 -8.039062 8.699219 -7.117188 6.539062 -7.117188 L 3.480469 -7.117188 Z M 3.480469 -12.738281 "/></g></g><g style="fill:rgb(0%,0%,0%);fill-opacity:1;"><g transform="translate(429.087229, 95.571474)"><path style="stroke:none;" d=""/></g></g><g style="fill:rgb(0%,0%,0%);fill-opacity:1;"><g transform="translate(433.585455, 95.571474)"><path style="stroke:none;" d=""/></g></g><g style="fill:rgb(0%,0%,0%);fill-opacity:1;"><g transform="translate(438.075514, 95.571474)"><path style="stroke:none;" d="M 4.378906 0 L 5.839844 0 C 5.957031 0 6.039062 -0.0585938 6.078125 -0.199219 L 8.378906 -7.65625 C 8.835938 -9.15625 9.199219 -10.597656 9.476562 -11.878906 L 9.539062 -11.878906 C 9.796875 -10.617188 10.199219 -9.136719 10.636719 -7.65625 L 12.9375 -0.199219 C 12.957031 -0.0585938 13.035156 0 13.175781 0 L 14.636719 0 C 14.757812 0 14.835938 -0.0585938 14.875 -0.199219 L 18.753906 -14.035156 C 18.796875 -14.175781 18.714844 -14.296875 18.554688 -14.296875 L 17.195312 -14.296875 C 17.074219 -14.296875 16.996094 -14.238281 16.957031 -14.097656 L 14.875 -6.277344 C 14.515625 -4.898438 14.195312 -3.460938 13.898438 -2.058594 L 13.855469 -2.058594 C 13.496094 -3.480469 13.035156 -5.117188 12.636719 -6.519531 L 10.417969 -13.875 C 10.378906 -13.996094 10.316406 -14.078125 10.175781 -14.078125 L 8.816406 -14.078125 C 8.699219 -14.078125 8.617188 -13.996094 8.578125 -13.875 L 6.378906 -6.519531 C 5.976562 -5.140625 5.519531 -3.480469 5.160156 -2.058594 L 5.117188 -2.058594 C 4.820312 -3.480469 4.480469 -4.898438 4.117188 -6.277344 L 2.039062 -14.097656 C 2.019531 -14.238281 1.941406 -14.296875 1.800781 -14.296875 L 0.460938 -14.296875 C 0.300781 -14.296875 0.21875 -14.175781 0.261719 -14.035156 L 4.117188 -0.199219 C 4.160156 -0.0585938 4.238281 0 4.378906 0 Z M 4.378906 0 "/></g></g><g style="fill:rgb(0%,0%,0%);fill-opacity:1;"><g transform="translate(457.088018, 95.571474)"><path style="stroke:none;" d="M 3.5 -1.558594 L 3.5 -6.476562 L 9.636719 -6.476562 C 9.777344 -6.476562 9.859375 -6.558594 9.859375 -6.71875 L 9.859375 -7.816406 C 9.859375 -7.976562 9.777344 -8.058594 9.636719 -8.058594 L 3.5 -8.058594 L 3.5 -12.738281 L 10.097656 -12.738281 C 10.238281 -12.738281 10.316406 -12.816406 10.316406 -12.957031 L 10.316406 -14.078125 C 10.316406 -14.214844 10.238281 -14.296875 10.097656 -14.296875 L 2.019531 -14.296875 C 1.859375 -14.296875 1.78125 -14.214844 1.78125 -14.078125 L 1.78125 -0.21875 C 1.78125 -0.078125 1.859375 0 2.019531 0 L 10.378906 0 C 10.515625 0 10.597656 -0.078125 10.597656 -0.21875 L 10.597656 -1.339844 C 10.597656 -1.480469 10.515625 -1.558594 10.378906 -1.558594 Z M 3.5 -1.558594 "/></g></g><g style="fill:rgb(0%,0%,0%);fill-opacity:1;"><g transform="translate(468.663453, 95.571474)"><path style="stroke:none;" d="M 11.15625 -10.539062 C 11.15625 -12.796875 9.71875 -14.296875 6.859375 -14.296875 L 2.019531 -14.296875 C 1.859375 -14.296875 1.78125 -14.214844 1.78125 -14.078125 L 1.78125 -0.21875 C 1.78125 -0.078125 1.859375 0 2.019531 0 L 6.839844 0 C 9.957031 0 11.757812 -1.539062 11.757812 -4.140625 C 11.757812 -5.796875 10.9375 -7.078125 9.457031 -7.617188 C 10.496094 -8.117188 11.15625 -9.175781 11.15625 -10.539062 Z M 9.4375 -10.539062 C 9.4375 -9.039062 8.4375 -8.316406 6.976562 -8.316406 L 3.480469 -8.316406 L 3.480469 -12.757812 L 6.859375 -12.757812 C 8.558594 -12.757812 9.4375 -11.898438 9.4375 -10.539062 Z M 6.859375 -1.539062 L 3.480469 -1.539062 L 3.480469 -6.777344 L 6.976562 -6.777344 C 9.078125 -6.777344 10.039062 -5.71875 10.039062 -4.140625 C 10.039062 -2.359375 8.816406 -1.539062 6.859375 -1.539062 Z M 6.859375 -1.539062 "/></g></g></g></svg>